<?xml version="1.0" encoding="UTF-8"?>
<svg version="1.1" xmlns="http://www.w3.org/2000/svg" width="64" height="64">
<path d="M0 0 C3.97530979 2.11452648 5.68275385 4.64751966 7.39135742 8.77758789 C8.65662983 13.39763392 8.30251201 18.18661919 8.1875 22.9375 C8.16719727 24.53561523 8.16719727 24.53561523 8.14648438 26.16601562 C8.11134724 28.77787588 8.06215184 31.38866634 8 34 C9.42892578 33.94779297 9.42892578 33.94779297 10.88671875 33.89453125 C12.14097656 33.86746094 13.39523438 33.84039062 14.6875 33.8125 C15.92886719 33.77769531 17.17023437 33.74289063 18.44921875 33.70703125 C23.01079321 34.08339878 25.26131076 35.63361287 28.76953125 38.390625 C30.93142669 41.21824698 30.71231191 43.97744731 30.6015625 47.42578125 C29.66589567 51.42970621 27.55572834 53.20510206 24.31640625 55.59375 C15.84072348 60.73918979 6.67288983 61.0294441 -3 60 C-9.56588233 58.05023291 -14.36526271 54.79286255 -18 49 C-20.18526645 42.20397633 -20.36652259 35.72907164 -20.375 28.625 C-20.39949219 27.5525 -20.42398437 26.48 -20.44921875 25.375 C-20.48094841 16.68107203 -18.82908129 9.31142976 -13.375 2.375 C-9.46423908 -1.12776805 -4.94858114 -0.95165022 0 0 Z " fill="#000000" transform="translate(28,2)"/>
</svg>
